<?xml version="1.0" encoding="utf-8"?>
<!-- Generator: Adobe Illustrator 27.8.1, SVG Export Plug-In . SVG Version: 6.00 Build 0)  -->
<svg version="1.1" id="Layer_2_00000170280691296893021440000013453465060205852555_"
	 xmlns="http://www.w3.org/2000/svg" xmlns:xlink="http://www.w3.org/1999/xlink" x="0px" y="0px" viewBox="0 0 129.1 102.2"
	 style="enable-background:new 0 0 129.1 102.2;" xml:space="preserve">
<style type="text/css">
	.st0{stroke:#000000;stroke-width:3;stroke-miterlimit:10;}
	.st1{fill:none;stroke:#000000;stroke-width:5;stroke-miterlimit:10;}
</style>
<g id="Layer_1-2">
	<path class="st0" d="M105.2,57.7H24c-11.9,0-21.5,9.6-21.5,21.5v0c0,11.9,9.6,21.5,21.5,21.5h81.2c11.9,0,21.5-9.6,21.5-21.5v0
		C126.7,67.3,117,57.7,105.2,57.7z M106.1,95.8c-9.7,0-17.7-7.7-17.7-17.1c0-9.5,8.1-17.1,17.9-17c9.8,0.1,17.6,7.8,17.6,17.2
		C123.8,88.2,115.8,95.8,106.1,95.8z"/>
	<path class="st1" d="M105.2,45.5H24C12.1,45.5,2.5,35.9,2.5,24v0C2.5,12.1,12.1,2.5,24,2.5h81.2c11.9,0,21.5,9.6,21.5,21.5v0
		C126.6,35.9,117,45.5,105.2,45.5z"/>
	<path d="M27.1,37.8c8.1,0,14.7-6.4,14.7-14.2c0-7.8-6.7-14.2-14.9-14.1c-8.1,0.1-14.6,6.4-14.6,14.3C12.3,31.5,18.9,37.9,27.1,37.8
		L27.1,37.8z"/>
</g>
</svg>
