<?xml version="1.0" encoding="UTF-8"?>
<svg id="Layer_2" data-name="Layer 2" xmlns="http://www.w3.org/2000/svg" viewBox="0 0 129.15 102.15">
  <defs>
    <style>
      .cls-1 {
        stroke-width: 5px;
      }

      .cls-1, .cls-2 {
        stroke: #000;
        stroke-miterlimit: 10;
      }

      .cls-1, .cls-3 {
        fill: #fff;
      }

      .cls-2 {
        stroke-width: 3px;
      }

      .cls-4, .cls-3 {
        stroke-width: 0px;
      }
    </style>
  </defs>
  <g id="Layer_1-2" data-name="Layer 1">
    <rect class="cls-2" x="2.5" y="57.66" width="124.15" height="42.99" rx="21.49" ry="21.49"/>
    <path class="cls-3" d="m106.06,95.79c-9.74-.03-17.69-7.73-17.66-17.11.03-9.45,8.06-17.08,17.91-17.02,9.75.06,17.63,7.77,17.57,17.18-.06,9.39-8.04,16.98-17.82,16.95Z"/>
    <rect class="cls-1" x="2.5" y="2.5" width="124.15" height="42.99" rx="21.49" ry="21.49" transform="translate(129.15 47.99) rotate(180)"/>
    <path class="cls-4" d="m27.06,37.83c8.09-.03,14.69-6.42,14.66-14.21-.02-7.84-6.69-14.18-14.87-14.13-8.09.05-14.64,6.45-14.59,14.26.05,7.79,6.68,14.1,14.79,14.07Z"/>
  </g>
</svg>